<?xml version="1.0" encoding="utf-8"?>
<!-- Generator: Adobe Illustrator 28.3.0, SVG Export Plug-In . SVG Version: 6.00 Build 0)  -->
<svg version="1.1" id="Ebene_1" xmlns:serif="http://www.serif.com/"
	 xmlns="http://www.w3.org/2000/svg" xmlns:xlink="http://www.w3.org/1999/xlink" x="0px" y="0px" viewBox="0 0 456 456"
	 style="enable-background:new 0 0 456 456;" xml:space="preserve">
<style type="text/css">
	.st0{fill:#FFD400;}
	.st1{fill:#F29100;}
	.st2{fill:#E20613;}
	.st3{fill:#BD1622;}
	.st4{fill:#683B11;}
	.st5{fill:#422918;}
	.st6{fill:#634E42;}
	.st7{fill:#E61B72;}
	.st8{fill:#D60B51;}
	.st9{fill:#A2195B;}
	.st10{fill:#941B80;}
	.st11{fill:#662482;}
	.st12{fill:#29235C;}
	.st13{fill:#2D2E82;}
	.st14{fill:#1D70B7;}
	.st15{fill:#35A8E0;}
	.st16{fill:#00A099;}
	.st17{fill:#2DAB66;}
	.st18{fill:#006633;}
	.st19{fill:#008D36;}
	.st20{fill:#39A935;}
	.st21{fill:#93C01F;}
	.st22{fill:#DDDB00;}
	.st23{fill:#FFEC00;}
	.st24{fill:url(#SVGID_1_);}
	.st25{fill:#F8B133;}
	.st26{fill:#FFFFFF;}
	.st27{font-family:'CenturyGothic-Bold';}
	.st28{font-size:54px;}
</style>
<polygon class="st0" points="187.2,213.7 60.6,154.2 94.3,119.9 189.9,195.5 "/>
<polygon class="st1" points="183.8,225.4 33.3,209.8 56.2,142.5 188.6,209.1 "/>
<polygon class="st2" points="188.6,237.4 92.4,249.1 74.4,197.7 181.8,220.2 "/>
<polygon class="st3" points="188.6,249.9 54.7,295.6 39.5,241.2 182.8,233.3 "/>
<polygon class="st4" points="201.6,257.1 86.7,337.1 74.4,282.7 187.1,245.7 "/>
<polygon class="st5" points="211.5,263.8 121.2,370.8 47.2,337.1 194.6,256.5 "/>
<polygon class="st6" points="222.8,267.7 143.4,397.1 108.8,372 204.5,265.1 "/>
<polygon class="st7" points="234.7,268.6 210,406.4 147.1,363.8 216.4,270.8 "/>
<polygon class="st8" points="246.4,266.4 258.2,405.8 196.9,361.9 229.3,273.2 "/>
<polygon class="st9" points="257.1,261.2 312.5,411 241.3,433.6 242.4,272.2 "/>
<polygon class="st10" points="266.2,253.4 346.1,368.2 285.5,370.8 254.8,267.8 "/>
<polygon class="st11" points="272.9,243.5 379.8,333.8 355.2,400.9 265.6,260.4 "/>
<polygon class="st12" points="276.8,232.2 384.8,279.6 389.2,370.8 274.1,250.5 "/>
<polygon class="st13" points="277.7,220.3 415.4,245 385.7,299 279.8,238.6 "/>
<polygon class="st14" points="275.4,208.6 420.3,177.3 422.7,255.2 282.2,225.7 "/>
<polygon class="st15" points="265.6,192.6 401.9,150.4 413.2,183.9 270.9,213.7 "/>
<polygon class="st16" points="273.5,186.8 334,134.8 379.8,171.4 276.9,200.2 "/>
<polygon class="st17" points="258.2,177.3 342.8,75.2 359.8,130.4 269.5,189.4 "/>
<polygon class="st18" points="241.3,178.2 300.4,45.7 355.2,74 258.2,184.8 "/>
<polygon class="st19" points="229.3,177.3 249,26.2 312.5,72.7 247.7,175.2 "/>
<polygon class="st20" points="217.6,179.6 181.7,39.6 264.2,32.3 234.7,177.3 "/>
<polygon class="st21" points="206.9,184.8 172.2,92.2 193.1,22.4 221.7,173.8 "/>
<polygon class="st22" points="197.9,192.6 135.2,99.7 176.2,77.1 209.3,178.1 "/>
<polygon class="st23" points="189.9,195.5 64.8,108.9 120,65.4 198.4,185.5 "/>
<radialGradient id="SVGID_1_" cx="229.3489" cy="223.4162" r="113.3965" gradientUnits="userSpaceOnUse">
	<stop  offset="0" style="stop-color:#1D1D1B"/>
	<stop  offset="0.2096" style="stop-color:#575755"/>
	<stop  offset="0.4921" style="stop-color:#9E9E9D"/>
	<stop  offset="0.7275" style="stop-color:#D2D2D2"/>
	<stop  offset="0.9035" style="stop-color:#F3F3F3"/>
	<stop  offset="1" style="stop-color:#FFFFFF"/>
</radialGradient>
<path class="st24" d="M342.7,223.4c0,62.6-50.8,113.4-113.4,113.4C166.7,336.8,116,286,116,223.4c0-62.6,50.8-113.4,113.4-113.4
	C292,110,342.7,160.8,342.7,223.4z"/>
<path class="st25" d="M356.4,228c0,70.9-57.5,128.3-128.3,128.3c-70.9,0-128.4-57.5-128.4-128.3c0-70.9,57.5-128.4,128.4-128.4
	C298.9,99.6,356.4,157.1,356.4,228z"/>
<ellipse transform="matrix(0.7071 -0.7071 0.7071 0.7071 -94.4407 227.9999)" class="st26" cx="228" cy="228" rx="120.8" ry="120.8"/>
<text transform="matrix(1 0 0 1 134.0536 210.5136)"><tspan x="0" y="0" class="st27 st28">COLOR </tspan><tspan x="3.2" y="64.8" class="st27 st28">MAKER</tspan></text>
</svg>
